# xmcd CD database file
#
# Track frame offsets:
#	150
#	14463
#	28134
#	42265
#	58982
#	77134
#	93616
#	107690
#	126124
#	144087
#	161083
#	175696
#	192737
#
# Disc length: 2869 seconds
#
# Revision: 0
# Processed by: cddbd v1.5.2PL0 Copyright (c) Steve Scherf et al.
# Submitted via: jetAudio 7
#
DISCID=b30b330d
DTITLE=Joe Nichols - Real Things
DYEAR=1900
DGENRE=Country
TTITLE0=Real Things
TTITLE1=Another Side of You
TTITLE2=Who Are You When I'm Not Looking
TTITLE3=Comin' Back In a Cadillac
TTITLE4=My Whiskey Years
TTITLE5=It Ain't No Crime
TTITLE6=All Good Things
TTITLE7=Let's Get Drunk and Fight
TTITLE8=Ain't Nobody Gonna Take That from Me
TTITLE9=She's All Lady
TTITLE10=The Difference is Night and Day
TTITLE11=All I Need Is a Heart
TTITLE12=If I Could Only Fly
EXTD=
EXTT0=
EXTT1=
EXTT2=
EXTT3=
EXTT4=
EXTT5=
EXTT6=
EXTT7=
EXTT8=
EXTT9=
EXTT10=
EXTT11=
EXTT12=
PLAYORDER=
